<svg width="382" height="534" viewBox="0 0 382 534" fill="none" xmlns="http://www.w3.org/2000/svg">
<g filter="url(#filter0_d_153_7)">
<rect x="8" y="4.50641" width="365.536" height="517.987" rx="17.8" fill="white"/>
<path d="M157.745 68.6464H169.841V73.3264H157.745V68.6464ZM158.177 82.5064H152.345V57.3064H171.389V61.9864H158.177V82.5064ZM174.59 82.5064V63.1384H179.954V68.6104L179.198 67.0264C179.774 65.6584 180.698 64.6264 181.97 63.9304C183.242 63.2104 184.79 62.8504 186.614 62.8504V68.0344C186.374 68.0104 186.158 67.9984 185.966 67.9984C185.774 67.9744 185.57 67.9624 185.354 67.9624C183.818 67.9624 182.57 68.4064 181.61 69.2944C180.674 70.1584 180.206 71.5144 180.206 73.3624V82.5064H174.59ZM199.425 82.7944C197.217 82.7944 195.273 82.3624 193.593 81.4984C191.937 80.6344 190.653 79.4584 189.741 77.9704C188.829 76.4584 188.373 74.7424 188.373 72.8224C188.373 70.8784 188.817 69.1624 189.705 67.6744C190.617 66.1624 191.853 64.9864 193.413 64.1464C194.973 63.2824 196.737 62.8504 198.705 62.8504C200.601 62.8504 202.305 63.2584 203.817 64.0744C205.353 64.8664 206.565 66.0184 207.453 67.5304C208.341 69.0184 208.785 70.8064 208.785 72.8944C208.785 73.1104 208.773 73.3624 208.749 73.6504C208.725 73.9144 208.701 74.1664 208.677 74.4064H192.945V71.1304H205.725L203.565 72.1024C203.565 71.0944 203.361 70.2184 202.953 69.4744C202.545 68.7304 201.981 68.1544 201.261 67.7464C200.541 67.3144 199.701 67.0984 198.741 67.0984C197.781 67.0984 196.929 67.3144 196.185 67.7464C195.465 68.1544 194.901 68.7424 194.493 69.5104C194.085 70.2544 193.881 71.1424 193.881 72.1744V73.0384C193.881 74.0944 194.109 75.0304 194.565 75.8464C195.045 76.6384 195.705 77.2504 196.545 77.6824C197.409 78.0904 198.417 78.2944 199.569 78.2944C200.601 78.2944 201.501 78.1384 202.269 77.8264C203.061 77.5144 203.781 77.0464 204.429 76.4224L207.417 79.6624C206.529 80.6704 205.413 81.4504 204.069 82.0024C202.725 82.5304 201.177 82.7944 199.425 82.7944ZM222.136 82.7944C219.928 82.7944 217.984 82.3624 216.304 81.4984C214.648 80.6344 213.364 79.4584 212.452 77.9704C211.54 76.4584 211.084 74.7424 211.084 72.8224C211.084 70.8784 211.528 69.1624 212.416 67.6744C213.328 66.1624 214.564 64.9864 216.124 64.1464C217.684 63.2824 219.448 62.8504 221.416 62.8504C223.312 62.8504 225.016 63.2584 226.528 64.0744C228.064 64.8664 229.276 66.0184 230.164 67.5304C231.052 69.0184 231.496 70.8064 231.496 72.8944C231.496 73.1104 231.484 73.3624 231.46 73.6504C231.436 73.9144 231.412 74.1664 231.388 74.4064H215.656V71.1304H228.436L226.276 72.1024C226.276 71.0944 226.072 70.2184 225.664 69.4744C225.256 68.7304 224.692 68.1544 223.972 67.7464C223.252 67.3144 222.412 67.0984 221.452 67.0984C220.492 67.0984 219.64 67.3144 218.896 67.7464C218.176 68.1544 217.612 68.7424 217.204 69.5104C216.796 70.2544 216.592 71.1424 216.592 72.1744V73.0384C216.592 74.0944 216.82 75.0304 217.276 75.8464C217.756 76.6384 218.416 77.2504 219.256 77.6824C220.12 78.0904 221.128 78.2944 222.28 78.2944C223.312 78.2944 224.212 78.1384 224.98 77.8264C225.772 77.5144 226.492 77.0464 227.14 76.4224L230.128 79.6624C229.24 80.6704 228.124 81.4504 226.78 82.0024C225.436 82.5304 223.888 82.7944 222.136 82.7944Z" fill="#121A04"/>
<rect x="39" y="411.5" width="303" height="66" rx="4" fill="#A6C468"/>
<path d="M123.691 444.645H131.156V454.68C130.108 455.026 129.023 455.295 127.902 455.486C126.781 455.678 125.523 455.773 124.129 455.773C122.096 455.773 120.374 455.372 118.961 454.57C117.557 453.759 116.491 452.588 115.762 451.057C115.033 449.516 114.668 447.661 114.668 445.492C114.668 443.405 115.074 441.596 115.885 440.064C116.696 438.524 117.876 437.335 119.426 436.496C120.975 435.648 122.853 435.225 125.059 435.225C126.143 435.225 127.191 435.334 128.203 435.553C129.224 435.762 130.158 436.054 131.006 436.428L129.857 439.135C129.183 438.816 128.426 438.547 127.588 438.328C126.749 438.109 125.879 438 124.977 438C123.546 438 122.311 438.31 121.271 438.93C120.242 439.549 119.449 440.424 118.893 441.555C118.337 442.676 118.059 444.002 118.059 445.533C118.059 447.019 118.282 448.322 118.729 449.443C119.175 450.564 119.872 451.439 120.82 452.068C121.777 452.688 123.012 452.998 124.525 452.998C125.282 452.998 125.924 452.957 126.453 452.875C126.982 452.793 127.469 452.702 127.916 452.602V447.447H123.691V444.645ZM141.643 440.078C142.992 440.078 144.149 440.356 145.115 440.912C146.081 441.468 146.824 442.257 147.344 443.277C147.863 444.298 148.123 445.52 148.123 446.941V448.664H138.02C138.056 450.132 138.448 451.262 139.195 452.055C139.952 452.848 141.009 453.244 142.367 453.244C143.333 453.244 144.199 453.153 144.965 452.971C145.74 452.779 146.537 452.501 147.357 452.137V454.748C146.601 455.104 145.831 455.363 145.047 455.527C144.263 455.691 143.324 455.773 142.23 455.773C140.745 455.773 139.437 455.486 138.307 454.912C137.186 454.329 136.306 453.463 135.668 452.314C135.039 451.166 134.725 449.74 134.725 448.035C134.725 446.34 135.012 444.9 135.586 443.715C136.16 442.53 136.967 441.628 138.006 441.008C139.045 440.388 140.257 440.078 141.643 440.078ZM141.643 442.498C140.631 442.498 139.811 442.826 139.182 443.482C138.562 444.139 138.197 445.1 138.088 446.367H144.979C144.969 445.611 144.842 444.941 144.596 444.357C144.359 443.774 143.994 443.318 143.502 442.99C143.019 442.662 142.399 442.498 141.643 442.498ZM157.379 453.176C157.798 453.176 158.213 453.139 158.623 453.066C159.033 452.984 159.407 452.889 159.744 452.779V455.213C159.389 455.368 158.928 455.5 158.363 455.609C157.798 455.719 157.21 455.773 156.6 455.773C155.743 455.773 154.973 455.632 154.289 455.35C153.605 455.058 153.063 454.561 152.662 453.859C152.261 453.158 152.061 452.187 152.061 450.947V442.812H149.996V441.377L152.211 440.242L153.264 437.002H155.287V440.365H159.621V442.812H155.287V450.906C155.287 451.672 155.479 452.242 155.861 452.615C156.244 452.989 156.75 453.176 157.379 453.176ZM181.961 450.059C181.961 451.243 181.669 452.264 181.086 453.121C180.512 453.978 179.682 454.634 178.598 455.09C177.522 455.546 176.237 455.773 174.742 455.773C174.013 455.773 173.316 455.732 172.65 455.65C171.985 455.568 171.356 455.45 170.764 455.295C170.18 455.131 169.647 454.935 169.164 454.707V451.617C169.975 451.973 170.882 452.296 171.885 452.588C172.887 452.87 173.908 453.012 174.947 453.012C175.795 453.012 176.497 452.902 177.053 452.684C177.618 452.456 178.037 452.137 178.311 451.727C178.584 451.307 178.721 450.82 178.721 450.264C178.721 449.671 178.561 449.17 178.242 448.76C177.923 448.35 177.44 447.976 176.793 447.639C176.155 447.292 175.353 446.923 174.387 446.531C173.73 446.267 173.102 445.966 172.5 445.629C171.908 445.292 171.379 444.895 170.914 444.439C170.449 443.984 170.08 443.446 169.807 442.826C169.542 442.197 169.41 441.459 169.41 440.611C169.41 439.481 169.679 438.515 170.217 437.713C170.764 436.911 171.529 436.296 172.514 435.867C173.507 435.439 174.665 435.225 175.986 435.225C177.035 435.225 178.019 435.334 178.939 435.553C179.869 435.771 180.781 436.081 181.674 436.482L180.635 439.121C179.814 438.784 179.017 438.515 178.242 438.314C177.477 438.114 176.693 438.014 175.891 438.014C175.198 438.014 174.61 438.118 174.127 438.328C173.644 438.538 173.275 438.834 173.02 439.217C172.773 439.59 172.65 440.037 172.65 440.557C172.65 441.14 172.792 441.632 173.074 442.033C173.366 442.425 173.812 442.785 174.414 443.113C175.025 443.441 175.809 443.806 176.766 444.207C177.868 444.663 178.803 445.141 179.568 445.643C180.343 446.144 180.936 446.745 181.346 447.447C181.756 448.14 181.961 449.01 181.961 450.059ZM191.121 453.176C191.54 453.176 191.955 453.139 192.365 453.066C192.775 452.984 193.149 452.889 193.486 452.779V455.213C193.131 455.368 192.671 455.5 192.105 455.609C191.54 455.719 190.952 455.773 190.342 455.773C189.485 455.773 188.715 455.632 188.031 455.35C187.348 455.058 186.805 454.561 186.404 453.859C186.003 453.158 185.803 452.187 185.803 450.947V442.812H183.738V441.377L185.953 440.242L187.006 437.002H189.029V440.365H193.363V442.812H189.029V450.906C189.029 451.672 189.221 452.242 189.604 452.615C189.986 452.989 190.492 453.176 191.121 453.176ZM202.496 440.078C204.41 440.078 205.855 440.502 206.83 441.35C207.814 442.197 208.307 443.519 208.307 445.314V455.5H206.023L205.408 453.354H205.299C204.87 453.9 204.428 454.352 203.973 454.707C203.517 455.062 202.988 455.327 202.387 455.5C201.794 455.682 201.07 455.773 200.213 455.773C199.311 455.773 198.504 455.609 197.793 455.281C197.082 454.944 196.521 454.434 196.111 453.75C195.701 453.066 195.496 452.201 195.496 451.152C195.496 449.594 196.075 448.423 197.232 447.639C198.399 446.855 200.158 446.422 202.51 446.34L205.135 446.244V445.451C205.135 444.403 204.889 443.656 204.396 443.209C203.913 442.762 203.23 442.539 202.346 442.539C201.589 442.539 200.855 442.648 200.145 442.867C199.434 443.086 198.741 443.355 198.066 443.674L197.027 441.404C197.766 441.012 198.604 440.693 199.543 440.447C200.491 440.201 201.475 440.078 202.496 440.078ZM205.121 448.268L203.166 448.336C201.562 448.391 200.436 448.664 199.789 449.156C199.142 449.648 198.818 450.323 198.818 451.18C198.818 451.927 199.042 452.474 199.488 452.82C199.935 453.158 200.523 453.326 201.252 453.326C202.364 453.326 203.285 453.012 204.014 452.383C204.752 451.745 205.121 450.811 205.121 449.58V448.268ZM220.475 440.078C220.73 440.078 221.008 440.092 221.309 440.119C221.609 440.146 221.869 440.183 222.088 440.229L221.787 443.236C221.596 443.182 221.359 443.141 221.076 443.113C220.803 443.086 220.557 443.072 220.338 443.072C219.764 443.072 219.217 443.168 218.697 443.359C218.178 443.542 217.717 443.824 217.316 444.207C216.915 444.581 216.601 445.05 216.373 445.615C216.145 446.18 216.031 446.837 216.031 447.584V455.5H212.805V440.365H215.32L215.758 443.031H215.908C216.209 442.493 216.583 442.001 217.029 441.555C217.476 441.108 217.986 440.753 218.561 440.488C219.144 440.215 219.782 440.078 220.475 440.078ZM230.523 453.176C230.943 453.176 231.357 453.139 231.768 453.066C232.178 452.984 232.551 452.889 232.889 452.779V455.213C232.533 455.368 232.073 455.5 231.508 455.609C230.943 455.719 230.355 455.773 229.744 455.773C228.887 455.773 228.117 455.632 227.434 455.35C226.75 455.058 226.208 454.561 225.807 453.859C225.406 453.158 225.205 452.187 225.205 450.947V442.812H223.141V441.377L225.355 440.242L226.408 437.002H228.432V440.365H232.766V442.812H228.432V450.906C228.432 451.672 228.623 452.242 229.006 452.615C229.389 452.989 229.895 453.176 230.523 453.176ZM241.994 440.078C243.343 440.078 244.501 440.356 245.467 440.912C246.433 441.468 247.176 442.257 247.695 443.277C248.215 444.298 248.475 445.52 248.475 446.941V448.664H238.371C238.408 450.132 238.799 451.262 239.547 452.055C240.303 452.848 241.361 453.244 242.719 453.244C243.685 453.244 244.551 453.153 245.316 452.971C246.091 452.779 246.889 452.501 247.709 452.137V454.748C246.952 455.104 246.182 455.363 245.398 455.527C244.615 455.691 243.676 455.773 242.582 455.773C241.096 455.773 239.788 455.486 238.658 454.912C237.537 454.329 236.658 453.463 236.02 452.314C235.391 451.166 235.076 449.74 235.076 448.035C235.076 446.34 235.363 444.9 235.938 443.715C236.512 442.53 237.318 441.628 238.357 441.008C239.396 440.388 240.609 440.078 241.994 440.078ZM241.994 442.498C240.982 442.498 240.162 442.826 239.533 443.482C238.913 444.139 238.549 445.1 238.439 446.367H245.33C245.321 445.611 245.193 444.941 244.947 444.357C244.71 443.774 244.346 443.318 243.854 442.99C243.37 442.662 242.751 442.498 241.994 442.498ZM257.184 455.773C255.379 455.773 253.93 455.117 252.836 453.805C251.751 452.483 251.209 450.537 251.209 447.967C251.209 445.369 251.76 443.405 252.863 442.074C253.975 440.743 255.438 440.078 257.252 440.078C258.018 440.078 258.688 440.183 259.262 440.393C259.836 440.593 260.328 440.867 260.738 441.213C261.158 441.559 261.513 441.947 261.805 442.375H261.955C261.91 442.092 261.855 441.687 261.791 441.158C261.736 440.62 261.709 440.124 261.709 439.668V434.227H264.936V455.5H262.42L261.846 453.436H261.709C261.436 453.873 261.089 454.27 260.67 454.625C260.26 454.971 259.768 455.249 259.193 455.459C258.628 455.669 257.958 455.773 257.184 455.773ZM258.086 453.162C259.462 453.162 260.433 452.766 260.998 451.973C261.563 451.18 261.855 449.99 261.873 448.404V447.98C261.873 446.285 261.6 444.986 261.053 444.084C260.506 443.173 259.508 442.717 258.059 442.717C256.901 442.717 256.017 443.186 255.406 444.125C254.805 445.055 254.504 446.354 254.504 448.021C254.504 449.689 254.805 450.965 255.406 451.85C256.017 452.725 256.91 453.162 258.086 453.162Z" fill="#121A04"/>
</g>
<defs>
<filter id="filter0_d_153_7" x="0.35" y="0.416408" width="380.836" height="533.287" filterUnits="userSpaceOnUse" color-interpolation-filters="sRGB">
<feFlood flood-opacity="0" result="BackgroundImageFix"/>
<feColorMatrix in="SourceAlpha" type="matrix" values="0 0 0 0 0 0 0 0 0 0 0 0 0 0 0 0 0 0 127 0" result="hardAlpha"/>
<feMorphology radius="0.89" operator="dilate" in="SourceAlpha" result="effect1_dropShadow_153_7"/>
<feOffset dy="3.56"/>
<feGaussianBlur stdDeviation="3.38"/>
<feComposite in2="hardAlpha" operator="out"/>
<feColorMatrix type="matrix" values="0 0 0 0 0.694118 0 0 0 0 0.721569 0 0 0 0 0.639216 0 0 0 0.4 0"/>
<feBlend mode="normal" in2="BackgroundImageFix" result="effect1_dropShadow_153_7"/>
<feBlend mode="normal" in="SourceGraphic" in2="effect1_dropShadow_153_7" result="shape"/>
</filter>
</defs>
</svg>
